<svg width="830" height="577" viewBox="0 0 830 577" fill="none" xmlns="http://www.w3.org/2000/svg">
<rect width="830" height="577" fill="#3C3C3C"/>
<line x1="328" y1="282" x2="528" y2="282" stroke="#9B9B9B" stroke-width="12"/>
<path d="M428 388L428 188" stroke="#9B9B9B" stroke-width="12"/>
<path d="M235.338 509.384H243.786V530.76H235.338V509.384ZM212.874 506.888H266.442V513.8H212.874V506.888ZM235.274 482.056H242.762V483.464C242.762 493.384 234.186 502.024 218.506 503.88L215.562 497.224C228.938 495.688 235.274 488.968 235.274 483.464V482.056ZM236.362 482.056H243.85V483.464C243.85 488.84 250.25 495.688 263.562 497.224L260.554 503.88C244.938 502.088 236.362 493.128 236.362 483.464V482.056ZM217.674 478.216H261.578V484.936H217.674V478.216ZM235.338 471.56H243.786V480.52H235.338V471.56ZM309.573 471.368H318.149V530.632H309.573V471.368ZM315.909 494.024H326.341V501H315.909V494.024ZM294.021 477.512H302.341C302.341 495.304 295.557 510.536 275.845 520.456L271.109 513.992C286.661 505.928 294.021 495.048 294.021 478.984V477.512ZM274.373 477.512H298.373V484.36H274.373V477.512ZM383.388 471.368H391.964V530.824H383.388V471.368ZM360.028 475.528C368.988 475.528 375.58 483.72 375.58 496.648C375.58 509.704 368.988 517.896 360.028 517.896C351.068 517.896 344.476 509.704 344.476 496.648C344.476 483.72 351.068 475.528 360.028 475.528ZM360.028 483.272C355.612 483.272 352.604 487.944 352.604 496.648C352.604 505.48 355.612 510.216 360.028 510.216C364.444 510.216 367.388 505.48 367.388 496.648C367.388 487.944 364.444 483.272 360.028 483.272ZM404.567 476.744H433.047V516.616H404.567V476.744ZM424.727 483.4H412.951V509.896H424.727V483.4ZM442.263 471.368H450.839V530.824H442.263V471.368ZM474.77 480.776H481.554V487.432C481.554 501.128 475.986 514.504 464.85 519.56L460.049 512.84C469.97 508.424 474.77 497.48 474.77 487.432V480.776ZM476.69 480.776H483.41V487.432C483.41 497.032 488.146 507.272 498.066 511.368L493.458 518.088C482.194 513.224 476.69 500.616 476.69 487.432V480.776ZM462.418 477.128H495.634V484.104H462.418V477.128ZM501.138 471.432H509.714V530.696H501.138V471.432ZM531.624 498.504H585.256V505.416H531.624V498.504ZM538.088 487.688H579.176V494.408H538.088V487.688ZM538.088 473.032H578.856V479.816H546.536V491.016H538.088V473.032ZM558.248 508.936C571.048 508.936 578.792 512.84 578.792 519.816C578.792 526.792 571.048 530.696 558.248 530.696C545.448 530.696 537.64 526.792 537.64 519.816C537.64 512.84 545.448 508.936 558.248 508.936ZM558.248 515.336C550.312 515.336 546.28 516.808 546.28 519.816C546.28 522.888 550.312 524.232 558.248 524.232C566.184 524.232 570.216 522.888 570.216 519.816C570.216 516.808 566.184 515.336 558.248 515.336ZM590.435 503.176H644.131V509.96H590.435V503.176ZM597.027 472.584H637.603V488.648H605.539V495.048H597.091V482.632H629.219V479.048H597.027V472.584ZM597.091 492.488H638.755V498.952H597.091V492.488ZM613.027 495.624H621.539V506.888H613.027V495.624ZM596.387 513.288H637.987V530.504H629.475V520.008H596.387V513.288Z" fill="#9B9B9B"/>
</svg>
