<svg width="316" height="56" viewBox="0 0 316 56" fill="none" xmlns="http://www.w3.org/2000/svg">
<rect width="315.84" height="56" rx="28" fill="#349AF8"/>
<path d="M71.1321 11.7833C71.3479 10.884 72.1521 10.25 73.0769 10.25H78.9233C79.848 10.25 80.6522 10.884 80.868 11.7833L81.7397 15.4153C83.2273 15.9546 84.6046 16.6972 85.8319 17.6064L89.8322 16.4405C90.6925 16.1898 91.6147 16.542 92.0889 17.3025L94.8736 21.7684C95.3983 22.61 95.2271 23.709 94.4711 24.351L91.5739 26.8117C91.6899 27.5255 91.7501 28.2562 91.7501 29C91.7501 29.7437 91.6899 30.4745 91.5739 31.1883L94.4712 33.6489C95.2271 34.291 95.3983 35.39 94.8736 36.2316L92.0889 40.6975C91.6147 41.458 90.6926 41.8102 89.8322 41.5594L85.8319 40.3936C84.6046 41.3028 83.2273 42.0454 81.7397 42.5847L80.868 46.2167C80.6522 47.116 79.848 47.75 78.9233 47.75H73.0769C72.1521 47.75 71.3479 47.116 71.1321 46.2167L70.2604 42.5847C68.7728 42.0454 67.3955 41.3028 66.1682 40.3936L62.1679 41.5594C61.3075 41.8102 60.3854 41.458 59.9112 40.6975L57.1265 36.2315C56.6017 35.39 56.773 34.291 57.5289 33.6489L60.4262 31.1883C60.3102 30.4745 60.2501 29.7437 60.2501 29C60.2501 28.2563 60.3102 27.5255 60.4262 26.8117L57.5289 24.3511C56.773 23.709 56.6018 22.61 57.1265 21.7684L59.9112 17.3025C60.3854 16.542 61.3075 16.1898 62.1679 16.4406L66.1682 17.6064C67.3955 16.6972 68.7728 15.9546 70.2604 15.4153L71.1321 11.7833Z" stroke="black" stroke-width="2" stroke-linecap="round" stroke-linejoin="round"/>
<path d="M78.25 29C78.25 30.1506 77.2426 31.0833 76 31.0833C74.7574 31.0833 73.75 30.1506 73.75 29C73.75 27.8494 74.7574 26.9167 76 26.9167C77.2426 26.9167 78.25 27.8494 78.25 29Z" stroke="black" stroke-width="2" stroke-linecap="round" stroke-linejoin="round"/>
<path d="M125.317 18.804H127.153V23.178C127.153 28.578 124.237 33.843 120.376 35.895L118.999 34.113C122.536 32.331 125.317 27.633 125.317 23.178V18.804ZM125.722 18.804H127.531V23.178C127.531 27.471 130.258 31.926 133.714 33.654L132.337 35.436C128.557 33.411 125.722 28.416 125.722 23.178V18.804ZM135.847 16.698H138.115V41.106H135.847V16.698ZM137.575 26.58H142.111V28.47H137.575V26.58ZM150.668 19.371H152.531V21.855C152.531 26.337 149.777 30.09 145.673 31.575L144.512 29.793C148.184 28.497 150.668 25.338 150.668 21.855V19.371ZM151.1 19.371H152.963V21.855C152.963 25.149 155.501 28.119 159.119 29.334L157.958 31.089C153.908 29.712 151.1 26.148 151.1 21.855V19.371ZM145.106 18.723H158.471V20.532H145.106V18.723ZM161.927 16.725H164.195V34.572H161.927V16.725ZM148.508 38.73H164.924V40.566H148.508V38.73ZM148.508 32.898H150.722V39.54H148.508V32.898ZM196.852 21.18H203.899V22.989H196.852V21.18ZM196.852 26.445H203.953V28.254H196.852V26.445ZM203.035 16.725H205.276V34.788H203.035V16.725ZM189.589 38.73H205.87V40.566H189.589V38.73ZM189.589 33.033H191.83V39.675H189.589V33.033ZM186.403 18.318H188.617V22.638H195.232V18.318H197.419V30.63H186.403V18.318ZM188.617 24.393V28.794H195.232V24.393H188.617ZM221.717 21.18H228.251V23.016H221.717V21.18ZM221.501 26.256H228.089V28.092H221.501V26.256ZM227.873 16.698H230.114V31.332H227.873V16.698ZM220.232 18.534H222.635C222.635 24.825 218.288 29.226 211.268 31.332L210.35 29.523C216.587 27.714 220.232 24.123 220.232 19.506V18.534ZM211.619 18.534H221.771V20.37H211.619V18.534ZM222.176 31.602C227.117 31.602 230.249 33.357 230.249 36.3C230.249 39.243 227.117 40.998 222.176 40.998C217.235 40.998 214.103 39.243 214.103 36.3C214.103 33.357 217.235 31.602 222.176 31.602ZM222.176 33.357C218.612 33.357 216.317 34.464 216.317 36.3C216.317 38.136 218.612 39.216 222.176 39.216C225.767 39.216 228.062 38.136 228.062 36.3C228.062 34.464 225.767 33.357 222.176 33.357Z" fill="black"/>
</svg>
