<svg width="160" height="160" viewBox="0 0 204 205" fill="none" xmlns="http://www.w3.org/2000/svg">
<path d="M0 50C0 22.3858 22.3858 0 50 0H154C181.614 0 204 22.3858 204 50V155C204 182.614 181.614 205 154 205H50C22.3858 205 0 182.614 0 155V50Z" fill="#909090"/>
<path d="M103 87.6666V117.333M117.667 102.5H88.3334M75.6667 132.167H130.333C131.438 132.167 132.333 131.271 132.333 130.167V74.8333C132.333 73.7287 131.438 72.8333 130.333 72.8333H75.6667C74.5621 72.8333 73.6667 73.7287 73.6667 74.8333V130.167C73.6667 131.271 74.5621 132.167 75.6667 132.167Z" stroke="black" stroke-width="2" stroke-linecap="round" stroke-linejoin="round"/>
</svg>
