<svg width="30" height="" viewBox="0 0 54 50" fill="none" xmlns="http://www.w3.org/2000/svg">
<path d="M22.1321 7.78325C22.3479 6.88401 23.1521 6.25 24.0769 6.25H29.9233C30.848 6.25 31.6522 6.88401 31.868 7.78325L32.7397 11.4153C34.2273 11.9546 35.6046 12.6972 36.8319 13.6064L40.8322 12.4405C41.6925 12.1898 42.6147 12.542 43.0889 13.3025L45.8736 17.7684C46.3983 18.61 46.2271 19.709 45.4711 20.351L42.5739 22.8117C42.6899 23.5255 42.7501 24.2562 42.7501 25C42.7501 25.7437 42.6899 26.4745 42.5739 27.1883L45.4712 29.6489C46.2271 30.291 46.3983 31.39 45.8736 32.2316L43.0889 36.6975C42.6147 37.458 41.6926 37.8102 40.8322 37.5594L36.8319 36.3936C35.6046 37.3028 34.2273 38.0454 32.7397 38.5847L31.868 42.2167C31.6522 43.116 30.848 43.75 29.9233 43.75H24.0769C23.1521 43.75 22.3479 43.116 22.1321 42.2167L21.2604 38.5847C19.7728 38.0454 18.3955 37.3028 17.1682 36.3936L13.1679 37.5594C12.3075 37.8102 11.3854 37.458 10.9112 36.6975L8.12649 32.2315C7.60174 31.39 7.77299 30.291 8.52892 29.6489L11.4262 27.1883C11.3102 26.4745 11.2501 25.7437 11.2501 25C11.2501 24.2563 11.3102 23.5255 11.4262 22.8117L8.52895 20.3511C7.77302 19.709 7.60177 18.61 8.12653 17.7684L10.9112 13.3025C11.3854 12.542 12.3075 12.1898 13.1679 12.4406L17.1682 13.6064C18.3955 12.6972 19.7728 11.9546 21.2604 11.4153L22.1321 7.78325Z" stroke="black" stroke-width="2" stroke-linecap="round" stroke-linejoin="round"/>
<path d="M29.25 25C29.25 26.1506 28.2426 27.0833 27 27.0833C25.7574 27.0833 24.75 26.1506 24.75 25C24.75 23.8494 25.7574 22.9167 27 22.9167C28.2426 22.9167 29.25 23.8494 29.25 25Z" stroke="black" stroke-width="2" stroke-linecap="round" stroke-linejoin="round"/>
</svg>
