<svg width="330" height="680" viewBox="0 0 389 644" fill="none" xmlns="http://www.w3.org/2000/svg">
<path d="M16 518C16 516.895 16.8954 516 18 516H371C372.105 516 373 516.895 373 518C373 519.105 372.105 520 371 520H18C16.8954 520 16 519.105 16 518Z" fill="#CECECE"/>
<g filter="url(#filter0_d_526_617)">
<path d="M5 51C5 23.3858 27.3858 1 55 1H334C361.614 1 384 23.3858 384 51V585C384 612.614 361.614 635 334 635H55C27.3858 635 5 612.614 5 585V51Z" fill="#A9A9A9" fill-opacity="0.5" shape-rendering="crispEdges"/>
</g>
<defs>
<filter id="filter0_d_526_617" x="0" y="0" width="389" height="644" filterUnits="userSpaceOnUse" color-interpolation-filters="sRGB">
<feFlood flood-opacity="0" result="BackgroundImageFix"/>
<feColorMatrix in="SourceAlpha" type="matrix" values="0 0 0 0 0 0 0 0 0 0 0 0 0 0 0 0 0 0 127 0" result="hardAlpha"/>
<feOffset dy="4"/>
<feGaussianBlur stdDeviation="2.5"/>
<feComposite in2="hardAlpha" operator="out"/>
<feColorMatrix type="matrix" values="0 0 0 0 0 0 0 0 0 0 0 0 0 0 0 0 0 0 0.25 0"/>
<feBlend mode="normal" in2="BackgroundImageFix" result="effect1_dropShadow_526_617"/>
<feBlend mode="normal" in="SourceGraphic" in2="effect1_dropShadow_526_617" result="shape"/>
</filter>
</defs>
</svg>
