<svg width="400" height="152" viewBox="0 0 723 152" fill="none" xmlns="http://www.w3.org/2000/svg">
<path d="M36.2426 102.88C27.9626 102.88 21.1226 101.44 15.7226 98.56C10.4426 95.68 6.54258 91.9 4.02258 87.22C1.50258 82.42 0.242578 77.14 0.242578 71.38C0.242578 66.34 1.20258 61 3.12258 55.36C5.16258 49.6 8.04258 44.02 11.7626 38.62C15.6026 33.1 20.1626 28.12 25.4426 23.68C30.8426 19.12 36.9026 15.52 43.6226 12.88C50.4626 10.24 57.8426 8.91999 65.7626 8.91999C68.0426 8.91999 70.5026 9.09999 73.1426 9.46C75.7826 9.82 78.1826 10.36 80.3426 11.08C82.6226 11.68 84.1226 12.34 84.8426 13.06C85.2026 13.42 85.3826 13.72 85.3826 13.96C85.3826 14.2 85.0826 14.32 84.4826 14.32C83.7626 14.32 82.9226 14.02 81.9626 13.42C80.4026 12.46 77.8826 11.68 74.4026 11.08C71.0426 10.36 68.1026 10 65.5826 10C58.5026 10 51.8426 11.32 45.6026 13.96C39.4826 16.6 33.9626 20.14 29.0426 24.58C24.1226 29.02 19.8626 34 16.2626 39.52C12.7826 44.92 10.0826 50.5 8.16258 56.26C6.24258 61.9 5.28258 67.24 5.28258 72.28C5.28258 77.68 6.36258 82.66 8.52258 87.22C10.8026 91.66 14.2226 95.2 18.7826 97.84C23.4626 100.48 29.4626 101.8 36.7826 101.8C47.8226 101.8 57.9026 98.92 67.0226 93.16C76.1426 87.28 83.7626 79.96 89.8826 71.2C93.9626 65.44 97.0826 59.38 99.2426 53.02C101.523 46.54 102.663 40.36 102.663 34.48C102.663 28.36 101.403 22.84 98.8826 17.92C96.3626 12.88 92.4626 8.86 87.1826 5.86C81.9026 2.86 75.0626 1.35999 66.6626 1.35999C60.6626 1.35999 54.3626 2.67999 47.7626 5.32C41.1626 7.84 35.0426 11.2 29.4026 15.4C23.7626 19.48 19.2626 23.92 15.9026 28.72C15.5426 29.2 15.3026 29.44 15.1826 29.44C14.9426 29.44 14.8226 29.14 14.8226 28.54C14.8226 27.34 15.0026 26.5 15.3626 26.02C18.6026 20.86 23.1626 16.36 29.0426 12.52C34.9226 8.68 41.2826 5.68 48.1226 3.52C54.9626 1.36 61.3226 0.279996 67.2026 0.279996C76.8026 0.279996 84.6026 1.77999 90.6026 4.77999C96.6026 7.78 100.983 11.8 103.743 16.84C106.503 21.76 107.883 27.34 107.883 33.58C107.883 39.58 106.683 45.82 104.283 52.3C102.003 58.66 98.6426 64.84 94.2026 70.84C89.8826 76.84 84.7226 82.3 78.7226 87.22C72.8426 92.02 66.3026 95.86 59.1026 98.74C51.9026 101.5 44.2826 102.88 36.2426 102.88ZM111.194 102.52C110.714 102.52 110.174 102.1 109.574 101.26C108.974 100.42 108.554 99.88 108.314 99.64C108.194 99.4 108.074 99.1 107.954 98.74C107.954 98.38 107.954 98.08 107.954 97.84C107.954 97.24 108.074 96.64 108.314 96.04C108.674 95.44 108.974 94.9 109.214 94.42C110.534 92.14 112.034 88.96 113.714 84.88C115.514 80.68 117.314 76.24 119.114 71.56C120.914 66.76 122.534 62.26 123.974 58.06C125.414 53.74 126.374 50.32 126.854 47.8C126.974 47.32 127.034 46.9 127.034 46.54C127.154 46.06 127.214 45.64 127.214 45.28C127.214 44.32 126.914 43.6 126.314 43.12C125.834 42.52 124.814 42.22 123.254 42.22H115.874C115.514 42.22 115.394 42.1 115.514 41.86C115.634 41.62 115.814 41.5 116.054 41.5H121.634C123.794 41.5 126.014 41.5 128.294 41.5C130.694 41.38 132.254 41.14 132.974 40.78C133.454 40.54 133.874 40.48 134.234 40.6C134.594 40.72 134.654 41.02 134.414 41.5C133.934 42.34 133.034 44.38 131.714 47.62C130.514 50.74 129.074 54.4 127.394 58.6C125.714 62.8 124.034 67.06 122.354 71.38C120.674 75.7 119.114 79.54 117.674 82.9C117.554 83.02 117.494 83.2 117.494 83.44C118.334 81.64 119.234 79.96 120.194 78.4C121.754 75.76 123.794 72.46 126.314 68.5C128.834 64.54 131.654 60.58 134.774 56.62C138.014 52.66 141.314 49.18 144.674 46.18C148.154 43.18 151.574 41.32 154.934 40.6C155.294 40.48 155.654 40.42 156.014 40.42C156.374 40.42 156.734 40.42 157.094 40.42C158.054 40.42 158.894 40.6 159.614 40.96C160.334 41.32 160.694 42.16 160.694 43.48C160.574 45.16 159.854 47.86 158.534 51.58C157.214 55.18 155.474 59.68 153.314 65.08C150.554 71.68 148.454 76.9 147.014 80.74C145.574 84.46 144.554 87.7 143.954 90.46C143.594 91.9 143.414 93.4 143.414 94.96C143.414 97 143.954 97.96 145.034 97.84C146.354 97.6 147.794 97 149.354 96.04C151.034 95.08 152.414 94.24 153.494 93.52H153.674C153.794 93.52 153.854 93.58 153.854 93.7C153.854 94.18 153.494 94.54 152.774 94.78C152.294 95.02 150.974 95.68 148.814 96.76C146.774 97.84 145.034 98.68 143.594 99.28L140.714 100.9C140.354 101.02 139.994 101.08 139.634 101.08C139.154 101.08 138.794 101.02 138.554 100.9C138.434 100.78 138.314 100.66 138.194 100.54C137.474 99.94 137.654 98.02 138.734 94.78C139.934 91.42 141.614 87.28 143.774 82.36C145.934 77.32 148.094 72.04 150.254 66.52C150.494 65.8 151.034 64.24 151.874 61.84C152.714 59.44 153.494 56.8 154.214 53.92C154.934 51.04 155.294 48.58 155.294 46.54C155.294 44.14 154.634 42.94 153.314 42.94C151.154 42.94 148.754 43.96 146.114 46C143.594 48.04 140.894 50.74 138.014 54.1C135.254 57.46 132.494 61.12 129.734 65.08C127.094 69.04 124.694 72.94 122.534 76.78C120.374 80.5 118.334 84.46 116.414 88.66C114.494 92.86 113.054 97.06 112.094 101.26L111.554 102.34C111.434 102.46 111.314 102.52 111.194 102.52ZM190.864 118C191.224 119.08 191.044 119.38 190.324 118.9C189.604 118.42 188.824 117.46 187.984 116.02C187.024 114.58 186.544 112.96 186.544 111.16C186.544 109.24 186.964 107.38 187.804 105.58C190.204 99.94 193.444 93.94 197.524 87.58C201.724 81.22 206.344 74.74 211.384 68.14C216.544 61.54 221.824 55.06 227.224 48.7C232.744 42.34 238.084 36.4 243.244 30.88C248.524 25.24 253.264 20.32 257.464 16.12C258.424 15.16 259.324 13.96 260.164 12.52C261.004 10.96 261.424 9.58 261.424 8.38C261.424 7.42 261.064 6.7 260.344 6.22C259.744 5.62 258.604 5.32 256.924 5.32C255.844 5.32 254.344 5.38 252.424 5.49999C250.504 5.49999 249.184 5.55999 248.464 5.67999C248.224 5.67999 248.104 5.55999 248.104 5.32C248.104 4.6 248.464 4.12 249.184 3.87999C249.184 3.87999 250.204 3.93999 252.244 4.05999C254.284 4.18 256.564 4.24 259.084 4.24C262.684 4.24 265.624 4.06 267.904 3.7C268.624 3.58 269.224 3.52 269.704 3.52C270.184 3.4 270.304 3.52 270.064 3.87999C268.264 8.79999 266.464 14.5 264.664 20.98C262.984 27.46 261.364 34.18 259.804 41.14C258.364 48.1 256.984 54.88 255.664 61.48C254.464 67.96 253.444 73.78 252.604 78.94C251.764 83.98 251.224 87.82 250.984 90.46C254.104 86.62 257.884 82.24 262.324 77.32C266.884 72.4 271.684 67.24 276.724 61.84C281.764 56.44 286.744 51.16 291.664 46C296.584 40.72 301.084 35.86 305.164 31.42C309.364 26.98 312.724 23.2 315.244 20.08C317.404 17.44 318.904 15.4 319.744 13.96C320.584 12.4 321.124 11.44 321.364 11.08C321.964 10 322.984 8.86 324.424 7.66C325.984 6.33999 327.664 5.13999 329.464 4.05999C331.264 2.85999 332.764 1.95999 333.964 1.35999C334.204 1.12 334.264 1.3 334.144 1.9C334.144 2.38 334.024 2.68 333.784 2.8C331.864 3.99999 330.004 5.92 328.204 8.56C326.404 11.2 324.664 14.44 322.984 18.28C321.424 21.64 319.684 25.9 317.764 31.06C315.964 36.1 314.164 41.56 312.364 47.44C310.564 53.2 308.944 59.08 307.504 65.08C306.064 70.96 304.924 76.54 304.084 81.82C303.364 86.98 303.184 91.48 303.544 95.32C303.664 96.76 303.964 97.78 304.444 98.38C305.044 98.86 305.704 99.1 306.424 99.1C306.784 99.1 307.144 99.04 307.504 98.92C307.984 98.68 308.464 98.5 308.944 98.38C313.264 96.34 316.864 93.82 319.744 90.82C320.224 90.22 320.464 90.16 320.464 90.64C320.584 91 320.464 91.36 320.104 91.72C318.184 93.64 316.024 95.44 313.624 97.12C311.344 98.68 308.824 99.94 306.064 100.9C305.344 101.14 304.504 101.44 303.544 101.8C302.704 102.16 301.864 102.34 301.024 102.34C299.224 102.34 298.324 101.32 298.324 99.28C298.444 93.28 299.164 86.98 300.484 80.38C301.924 73.66 303.604 66.94 305.524 60.22C307.444 53.5 309.244 47.08 310.924 40.96C311.884 37.84 312.964 34.6 314.164 31.24C315.364 27.76 316.384 24.7 317.224 22.06C312.544 26.5 307.204 31.78 301.204 37.9C295.324 44.02 289.264 50.44 283.024 57.16C276.784 63.76 270.904 70.3 265.384 76.78C259.984 83.26 255.424 89.14 251.704 94.42L244.504 98.2C244.384 98.2 244.264 98.26 244.144 98.38C244.144 98.38 244.084 98.38 243.964 98.38C244.444 98.38 245.044 96.82 245.764 93.7C246.484 90.58 247.444 86.38 248.644 81.1C250.324 73.54 251.944 65.8 253.504 57.88C255.184 49.96 256.744 42.46 258.184 35.38C259.624 28.3 260.764 22.36 261.604 17.56C261.844 16.72 261.844 16.12 261.604 15.76C261.484 15.28 261.124 15.34 260.524 15.94C258.004 18.46 254.524 22.06 250.084 26.74C245.644 31.3 240.724 36.52 235.324 42.4C230.044 48.28 224.764 54.46 219.484 60.94C214.204 67.42 209.344 73.9 204.904 80.38C200.464 86.74 196.864 92.8 194.104 98.56C191.464 104.2 190.144 109.18 190.144 113.5C190.144 115.18 190.384 116.68 190.864 118ZM306.345 151.12C301.545 151.12 298.005 150.28 295.725 148.6C293.445 146.92 292.005 145 291.405 142.84C290.685 140.8 290.325 139.12 290.325 137.8C290.325 134.8 290.805 132.1 291.765 129.7C292.605 127.42 293.565 125.26 294.645 123.22C295.005 122.38 295.365 122.08 295.725 122.32C296.085 122.68 296.085 123.04 295.725 123.4C294.765 124.36 293.985 125.8 293.385 127.72C292.785 129.76 292.485 131.44 292.485 132.76C292.485 143.44 297.645 148.78 307.965 148.78C313.125 148.78 317.745 147.34 321.825 144.46C325.905 141.7 329.565 138.1 332.805 133.66C336.045 129.22 338.805 124.6 341.085 119.8C343.485 115.12 345.525 110.92 347.205 107.2C348.405 104.68 349.965 100.96 351.885 96.04C353.925 91 356.025 85.54 358.185 79.66C360.465 73.66 362.505 68.08 364.305 62.92C364.425 62.68 364.425 62.38 364.305 62.02C364.305 61.66 364.185 61.72 363.945 62.2C361.185 67.24 358.185 72.22 354.945 77.14C351.825 82.06 348.585 86.44 345.225 90.28C341.985 94 338.805 96.7 335.685 98.38C334.845 98.86 333.705 99.4 332.265 100C330.945 100.48 329.625 100.72 328.305 100.72C326.025 100.72 324.885 99.34 324.885 96.58C324.885 94.42 325.425 91.9 326.505 89.02C327.585 86.02 328.665 83.32 329.745 80.92C330.945 78.4 331.725 76.78 332.085 76.06C334.845 69.34 336.945 64.12 338.385 60.4C339.825 56.56 340.845 53.26 341.445 50.5C341.565 49.78 341.685 49.06 341.805 48.34C341.925 47.5 341.985 46.72 341.985 46C341.985 43.96 341.445 42.76 340.365 42.4C339.885 42.28 339.345 42.22 338.745 42.22C338.145 42.1 337.425 42.04 336.585 42.04C335.625 42.04 334.605 42.1 333.525 42.22C332.565 42.22 331.725 42.22 331.005 42.22C330.645 42.22 330.525 42.1 330.645 41.86C330.885 41.62 331.245 41.5 331.725 41.5H342.165C343.125 41.5 343.965 41.5 344.685 41.5C345.405 41.38 346.065 41.26 346.665 41.14L347.385 40.96H347.565C348.405 40.96 348.465 41.56 347.745 42.76L345.765 48.16C344.565 51.64 342.945 55.72 340.905 60.4C338.985 65.08 337.125 69.76 335.325 74.44C333.405 79 332.025 82.84 331.185 85.96C330.465 88.96 330.105 91.84 330.105 94.6C330.105 96.88 330.765 98.02 332.085 98.02C335.085 98.02 338.685 95.74 342.885 91.18C347.205 86.5 351.465 80.86 355.665 74.26C358.185 70.18 360.285 66.58 361.965 63.46C363.645 60.22 365.145 56.92 366.465 53.56C367.905 50.08 369.285 46.06 370.605 41.5C370.965 41.38 371.505 41.26 372.225 41.14C372.945 41.02 373.605 40.96 374.205 40.96C375.405 40.96 375.945 41.2 375.825 41.68L368.805 60.58C365.565 69.34 361.965 78.58 358.005 88.3C354.045 97.9 349.965 106.96 345.765 115.48C343.965 119.08 341.745 122.92 339.105 127C336.585 131.2 333.645 135.1 330.285 138.7C326.925 142.3 323.265 145.24 319.305 147.52C315.225 149.92 310.905 151.12 306.345 151.12ZM405.527 102.52L405.167 101.44C406.847 100.48 408.527 98.26 410.207 94.78C416.927 81.58 423.287 67.48 429.287 52.48C435.287 37.48 440.687 23.08 445.487 9.28C445.727 8.68 445.907 8.2 446.027 7.84C446.147 7.35999 446.207 7 446.207 6.76C446.207 5.8 444.767 5.26 441.887 5.14C439.007 5.14 435.947 5.32 432.707 5.67999C432.467 5.67999 432.347 5.55999 432.347 5.32C432.347 4.95999 432.467 4.59999 432.707 4.24C432.947 3.88 433.187 3.75999 433.427 3.87999C435.347 3.99999 437.327 4.11999 439.367 4.24C441.407 4.24 443.507 4.24 445.667 4.24C446.987 4.24 448.307 4.24 449.627 4.24C451.067 4.24 452.447 4.18 453.767 4.05999C455.447 3.93999 457.067 3.87999 458.627 3.87999C460.307 3.87999 461.927 3.87999 463.487 3.87999C464.687 3.87999 465.827 3.87999 466.907 3.87999C468.107 3.87999 469.307 3.93999 470.507 4.05999C480.347 4.53999 488.207 6.45999 494.087 9.81999C500.087 13.18 504.407 17.44 507.047 22.6C509.687 27.64 511.007 33.16 511.007 39.16C511.007 45.52 509.747 52 507.227 58.6C504.707 65.2 501.287 71.32 496.967 76.96C492.647 82.48 487.787 87.04 482.387 90.64C475.307 95.32 468.587 98.32 462.227 99.64C455.987 100.96 449.747 101.62 443.507 101.62C440.147 101.62 436.787 101.56 433.427 101.44C430.067 101.32 426.647 101.26 423.167 101.26C420.407 101.26 417.527 101.32 414.527 101.44C411.647 101.56 408.647 101.92 405.527 102.52ZM440.087 100.36C447.287 100.36 454.427 99.46 461.507 97.66C468.587 95.86 475.127 92.74 481.127 88.3C485.807 84.82 489.947 80.38 493.547 74.98C497.267 69.46 500.147 63.58 502.187 57.34C504.347 50.98 505.427 44.8 505.427 38.8C505.427 32.68 504.167 27.1 501.647 22.06C499.247 16.9 495.347 12.82 489.947 9.81999C484.547 6.7 477.287 5.14 468.167 5.14C466.847 5.14 465.047 5.14 462.767 5.14C460.487 5.02 458.327 5.2 456.287 5.67999C454.247 6.15999 452.807 7.11999 451.967 8.56C447.647 16.24 443.447 24.64 439.367 33.76C435.407 42.88 431.627 52.12 428.027 61.48C424.427 70.72 421.007 79.48 417.767 87.76C417.047 89.56 416.507 91.12 416.147 92.44C415.907 93.64 415.787 94.6 415.787 95.32C415.787 96.4 416.027 97.12 416.507 97.48C417.107 97.84 417.887 98.14 418.847 98.38C422.207 98.98 425.627 99.46 429.107 99.82C432.707 100.18 436.367 100.36 440.087 100.36ZM519.129 102.34C516.129 102.34 513.909 101.38 512.469 99.46C511.149 97.54 510.489 94.96 510.489 91.72C510.489 88.84 511.209 85 512.649 80.2C514.089 75.4 515.949 70.48 518.229 65.44L512.289 67.06C512.049 67.06 511.869 66.94 511.749 66.7C511.749 66.46 511.809 66.34 511.929 66.34C512.529 66.22 513.429 65.98 514.629 65.62C515.829 65.26 517.209 64.84 518.769 64.36C520.929 60.04 523.329 56.02 525.969 52.3C528.609 48.58 531.429 45.58 534.429 43.3C537.429 41.02 540.489 39.88 543.609 39.88C549.249 39.88 552.069 41.44 552.069 44.56C552.069 45.4 551.889 46.78 551.529 48.7C551.169 50.5 550.749 52.12 550.269 53.56C550.149 53.92 550.029 54.34 549.909 54.82C549.909 55.18 549.789 55.54 549.549 55.9C549.429 56.38 549.189 56.62 548.829 56.62C548.469 56.62 548.349 56.5 548.469 56.26C548.949 55.06 549.309 54.1 549.549 53.38C549.909 52.54 550.089 51.34 550.089 49.78C550.089 45.34 547.749 43.12 543.069 43.12C538.389 43.12 534.189 45.22 530.469 49.42C526.749 53.5 523.689 58.24 521.289 63.64C523.809 63.04 526.569 62.5 529.569 62.02C532.689 61.54 535.749 61.3 538.749 61.3C540.789 61.3 542.889 61.48 545.049 61.84C547.209 62.2 549.009 62.86 550.449 63.82C552.009 64.66 552.789 65.92 552.789 67.6C552.789 69.04 552.489 69.94 551.889 70.3C551.289 70.66 551.109 70.6 551.349 70.12C551.949 68.92 551.829 67.96 550.989 67.24C550.269 66.4 549.309 65.8 548.109 65.44C546.909 64.96 545.829 64.66 544.869 64.54C543.309 64.3 541.629 64.12 539.829 64C538.149 63.88 536.409 63.82 534.609 63.82C532.329 63.82 529.989 63.94 527.589 64.18C525.309 64.3 523.029 64.6 520.749 65.08C518.949 69.4 517.569 73.72 516.609 78.04C515.649 82.24 515.169 85.72 515.169 88.48C515.169 91.84 515.769 94.54 516.969 96.58C518.169 98.62 520.089 99.64 522.729 99.64C527.529 99.64 532.209 97.78 536.769 94.06C541.329 90.22 545.289 85.72 548.649 80.56C549.129 79.6 549.609 79.12 550.089 79.12C550.209 79.12 550.269 79.3 550.269 79.66C550.269 80.26 550.149 80.74 549.909 81.1C545.589 86.98 540.669 92.02 535.149 96.22C529.749 100.3 524.409 102.34 519.129 102.34ZM561.056 101.26C559.016 101.26 557.276 100.9 555.836 100.18C554.396 99.46 553.556 98.5 553.316 97.3C553.196 96.94 553.136 96.52 553.136 96.04C553.136 95.56 553.136 95.08 553.136 94.6C553.136 92.56 553.316 90.28 553.676 87.76C554.036 85.12 554.396 83.02 554.756 81.46C554.996 80.74 555.476 80.38 556.196 80.38C556.916 80.38 557.156 80.56 556.916 80.92C556.436 81.88 555.896 83.14 555.296 84.7C554.696 86.26 554.396 88.12 554.396 90.28C554.396 93.28 555.476 95.5 557.636 96.94C559.796 98.38 562.256 99.1 565.016 99.1C568.016 99.1 571.136 98.44 574.376 97.12C577.736 95.68 580.196 93.04 581.756 89.2C582.356 87.88 582.716 86.62 582.836 85.42C583.076 84.22 583.196 83.14 583.196 82.18C583.196 79.42 582.476 77.14 581.036 75.34C579.716 73.42 578.036 71.68 575.996 70.12C573.956 68.44 571.916 66.58 569.876 64.54C568.676 63.34 567.836 62.14 567.356 60.94C566.876 59.74 566.636 58.54 566.636 57.34C566.636 54.58 567.656 52 569.696 49.6C571.856 47.08 574.256 45.04 576.896 43.48C580.376 41.44 583.856 40.42 587.336 40.42C591.176 40.42 593.096 42.46 593.096 46.54C593.096 48.46 592.736 50.8 592.016 53.56C591.896 53.92 591.776 54.34 591.656 54.82C591.656 55.18 591.536 55.54 591.296 55.9C591.176 56.38 590.936 56.62 590.576 56.62C590.216 56.62 590.096 56.5 590.216 56.26C590.696 55.06 591.056 54.1 591.296 53.38C591.656 52.54 591.836 51.34 591.836 49.78C591.836 45.34 589.256 43.12 584.096 43.12C581.936 43.12 579.716 43.6 577.436 44.56C575.276 45.4 573.476 46.9 572.036 49.06C570.356 51.46 569.516 53.68 569.516 55.72C569.516 56.68 569.696 57.58 570.056 58.42C570.536 59.26 571.076 60.1 571.676 60.94C573.596 63.1 575.696 65.14 577.976 67.06C580.376 68.86 582.416 70.84 584.096 73C585.896 75.16 586.796 77.8 586.796 80.92C586.796 85.12 585.416 88.78 582.656 91.9C579.896 94.9 576.536 97.24 572.576 98.92C568.616 100.48 564.776 101.26 561.056 101.26ZM637.708 127.36C635.548 127.36 633.388 126.1 631.228 123.58C629.188 121.18 627.208 118 625.288 114.04C623.368 110.2 621.568 106 619.888 101.44C618.208 97 616.648 92.68 615.208 88.48C613.768 84.16 612.448 80.5 611.248 77.5L609.628 72.82C604.468 81.94 600.748 91.42 598.468 101.26C598.348 102.1 598.048 102.52 597.568 102.52C597.088 102.52 596.488 102.1 595.768 101.26C595.168 100.54 594.808 100 594.688 99.64C594.448 98.92 594.328 98.44 594.328 98.2C594.328 97.36 594.508 96.64 594.868 96.04C595.348 95.44 595.648 94.9 595.768 94.42C596.608 92.98 597.688 90.82 599.008 87.94C600.328 84.94 601.768 81.7 603.328 78.22C604.888 74.62 606.328 71.26 607.648 68.14C606.568 65.5 605.308 63.04 603.868 60.76C602.428 58.48 600.868 56.92 599.188 56.08C598.468 55.84 597.988 55.72 597.748 55.72C597.028 55.72 596.488 55.96 596.128 56.44C595.888 56.92 595.648 57.4 595.408 57.88C595.288 58.12 595.168 58.36 595.048 58.6C594.928 58.84 594.628 58.96 594.148 58.96C593.668 59.2 593.428 58.84 593.428 57.88C593.668 56.56 594.688 55.66 596.488 55.18C596.728 55.06 597.028 55 597.388 55C597.748 55 598.048 55 598.288 55C600.688 55 602.668 55.96 604.228 57.88C605.908 59.8 607.408 62.44 608.728 65.8C610.408 61.96 612.028 58.12 613.588 54.28C615.148 50.32 616.708 46.42 618.268 42.58C620.788 36.46 623.008 31 624.928 26.2C626.848 21.4 628.108 18.22 628.708 16.66C629.068 15.7 629.368 14.74 629.608 13.78C629.968 12.7 630.328 11.74 630.688 10.9C630.928 10.18 631.048 9.63999 631.048 9.28C631.048 7.95999 630.568 7.11999 629.608 6.76C628.768 6.4 627.988 6.16 627.268 6.04C626.068 5.92 624.928 5.86 623.848 5.86C622.768 5.86 621.568 5.86 620.248 5.86C619.768 5.86 619.588 5.74 619.708 5.49999C619.828 5.26 620.068 5.14 620.428 5.14H628.168C630.208 5.14 632.008 5.14 633.568 5.14C635.128 5.02 636.268 4.78 636.988 4.42C637.948 4.17999 638.128 4.53999 637.528 5.49999C637.168 6.09999 636.808 6.76 636.448 7.48C636.208 8.08 635.968 8.68 635.728 9.28C633.448 14.56 630.988 20.26 628.348 26.38C625.708 32.5 623.008 38.62 620.248 44.74L611.428 65.62L609.988 69.22C609.988 69.34 609.988 69.4 609.988 69.4C610.108 69.4 610.168 69.4 610.168 69.4C612.808 64.84 615.688 60.52 618.808 56.44C621.928 52.24 625.048 48.76 628.168 46C631.408 43.12 634.348 41.56 636.988 41.32C639.748 41.08 641.848 41.44 643.288 42.4C644.728 43.36 645.448 44.56 645.448 46C645.448 46.96 645.208 48.34 644.728 50.14C644.368 51.94 644.008 53.56 643.648 55C643.528 55.36 643.408 55.78 643.288 56.26C643.288 56.62 643.168 56.98 642.928 57.34C642.808 57.82 642.568 58.06 642.208 58.06C641.848 58.06 641.728 57.94 641.848 57.7C642.448 56.5 642.868 55.54 643.108 54.82C643.348 53.98 643.468 52.84 643.468 51.4C643.468 46.84 641.308 44.56 636.988 44.56C634.468 44.56 631.648 45.88 628.528 48.52C625.408 51.04 622.288 54.34 619.168 58.42C616.168 62.38 613.348 66.58 610.708 71.02C611.068 71.98 611.428 73 611.788 74.08C612.148 75.16 612.568 76.24 613.048 77.32C613.408 78.52 614.188 80.86 615.388 84.34C616.708 87.82 618.268 91.78 620.068 96.22C621.868 100.66 623.848 104.98 626.008 109.18C628.288 113.5 630.568 117.04 632.848 119.8C635.248 122.56 637.588 123.94 639.868 123.94C642.148 123.94 644.188 122.26 645.988 118.9C646.108 118.66 646.288 118.6 646.528 118.72C646.888 118.96 646.948 119.2 646.708 119.44C645.148 122.2 643.588 124.18 642.028 125.38C640.588 126.7 639.148 127.36 637.708 127.36ZM690.602 83.08C690.362 83.08 690.182 82.84 690.062 82.36C689.942 81.88 689.942 81.4 690.062 80.92C694.022 69.4 698.102 58 702.302 46.72C706.622 35.44 711.122 24.16 715.802 12.88C716.042 12.28 716.582 11.86 717.422 11.62C718.262 11.26 719.102 11.08 719.942 11.08C721.862 11.08 722.642 11.38 722.282 11.98C721.322 13.06 720.002 15.28 718.322 18.64C716.642 21.88 714.722 25.9 712.562 30.7C710.522 35.38 708.362 40.36 706.082 45.64C703.922 50.8 701.822 55.84 699.782 60.76C697.862 65.68 696.122 70.06 694.562 73.9C693.122 77.62 692.102 80.32 691.502 82C691.382 82.72 691.082 83.08 690.602 83.08ZM684.302 101.26C682.382 101.26 681.422 100.3 681.422 98.38C681.422 96.34 682.322 94.66 684.122 93.34C686.042 92.02 687.602 91.36 688.802 91.36C689.762 91.36 690.242 91.78 690.242 92.62C690.242 93.58 689.822 94.84 688.982 96.4C688.142 97.96 687.362 99.22 686.642 100.18C686.042 100.9 685.262 101.26 684.302 101.26Z" fill="white"/>
</svg>
